<svg width="10" height="10" viewBox="0 0 10 10" fill="none" xmlns="http://www.w3.org/2000/svg">
<path d="M3.71867 6.25802L7.49829 2.32632C7.61574 2.20415 7.76522 2.14307 7.94672 2.14307C8.12823 2.14307 8.27771 2.20415 8.39515 2.32632C8.5126 2.44849 8.57132 2.60399 8.57132 2.7928C8.57132 2.98161 8.5126 3.1371 8.39515 3.25927L4.1671 7.65744C4.03897 7.79071 3.8895 7.85735 3.71867 7.85735C3.54783 7.85735 3.39836 7.79071 3.27023 7.65744L1.60464 5.92482C1.48719 5.80265 1.42847 5.64716 1.42847 5.45835C1.42847 5.26954 1.48719 5.11405 1.60464 4.99188C1.72208 4.86971 1.87156 4.80862 2.05307 4.80862C2.23457 4.80862 2.38405 4.86971 2.5015 4.99188L3.71867 6.25802Z" fill="white"/>
</svg>
